{
  "accessors": [
    {
      "bufferView": 2,
      "componentType": 5126,
      "count": 4563,
      "max": [
        1.247377872467041,
        1.247377872467041,
        1.743073582649231
      ],
      "min": [
        -1.2473777532577515,
        -1.2473777532577515,
        -1.000000238418579
      ],
      "type": "VEC3"
    },
    {
      "bufferView": 2,
      "byteOffset": 54756,
      "componentType": 5126,
      "count": 4563,
      "max": [
        1.0,
        1.0,
        1.0
      ],
      "min": [
        -1.0,
        -1.0,
        -1.0
      ],
      "type": "VEC3"
    },
    {
      "bufferView": 1,
      "componentType": 5126,
      "count": 4563,
      "max": [
        0.8750001192092896,
        1.0000001192092896
      ],
      "min": [
        0.125,
        0.0
      ],
      "type": "VEC2"
    },
    {
      "bufferView": 0,
      "componentType": 5125,
      "count": 24960,
      "type": "SCALAR"
    },
    {
      "bufferView": 2,
      "byteOffset": 109512,
      "componentType": 5126,
      "count": 357,
      "max": [
        0.7464226484298706,
        0.7464225888252258,
        1.3074239492416382
      ],
      "min": [
        -0.7464225888252258,
        -0.7464225888252258,
        1.281797170639038
      ],
      "type": "VEC3"
    },
    {
      "bufferView": 2,
      "byteOffset": 113796,
      "componentType": 5126,
      "count": 357,
      "max": [
        0.7897087931632996,
        0.7897104024887085,
        1.0
      ],
      "min": [
        -0.7897108197212219,
        -0.7897085547447205,
        0.6134794354438782
      ],
      "type": "VEC3"
    },
    {
      "bufferView": 1,
      "byteOffset": 36504,
      "componentType": 5126,
      "count": 357,
      "max": [
        0.8543978929519653,
        0.7293977737426758
      ],
      "min": [
        0.656734049320221,
        0.5206022262573242
      ],
      "type": "VEC2"
    },
    {
      "bufferView": 0,
      "byteOffset": 99840,
      "componentType": 5125,
      "count": 1920,
      "type": "SCALAR"
    },
    {
      "bufferView": 2,
      "byteOffset": 118080,
      "componentType": 5126,
      "count": 1255,
      "max": [
        0.36349743604660034,
        0.8141483664512634,
        -0.0038377109449356794
      ],
      "min": [
        -0.3635001480579376,
        -0.9945688843727112,
        -0.9448143839836121
      ],
      "type": "VEC3"
    },
    {
      "bufferView": 2,
      "byteOffset": 133140,
      "componentType": 5126,
      "count": 1255,
      "max": [
        0.9955207109451294,
        0.9966253042221069,
        0.9999987483024597
      ],
      "min": [
        -0.9971671104431152,
        -0.9996944665908813,
        -0.9999854564666748
      ],
      "type": "VEC3"
    },
    {
      "bufferView": 1,
      "byteOffset": 39360,
      "componentType": 5126,
      "count": 1255,
      "max": [
        1.0000001192092896,
        1.0000001192092896
      ],
      "min": [
        0.0,
        0.0
      ],
      "type": "VEC2"
    },
    {
      "bufferView": 0,
      "byteOffset": 107520,
      "componentType": 5125,
      "count": 6528,
      "type": "SCALAR"
    },
    {
      "bufferView": 2,
      "byteOffset": 148200,
      "componentType": 5126,
      "count": 1255,
      "max": [
        0.36349743604660034,
        0.8141483664512634,
        -0.0038377109449356794
      ],
      "min": [
        -0.3635001480579376,
        -0.9945688843727112,
        -0.9448143839836121
      ],
      "type": "VEC3"
    },
    {
      "bufferView": 2,
      "byteOffset": 163260,
      "componentType": 5126,
      "count": 1255,
      "max": [
        0.9955207109451294,
        0.9966253042221069,
        0.9999987483024597
      ],
      "min": [
        -0.9971671104431152,
        -0.9996944665908813,
        -0.9999854564666748
      ],
      "type": "VEC3"
    },
    {
      "bufferView": 1,
      "byteOffset": 49400,
      "componentType": 5126,
      "count": 1255,
      "max": [
        1.0000001192092896,
        1.0000001192092896
      ],
      "min": [
        0.0,
        0.0
      ],
      "type": "VEC2"
    },
    {
      "bufferView": 0,
      "byteOffset": 133632,
      "componentType": 5125,
      "count": 6528,
      "type": "SCALAR"
    },
    {
      "bufferView": 2,
      "byteOffset": 178320,
      "componentType": 5126,
      "count": 1255,
      "max": [
        0.36349743604660034,
        0.8141483664512634,
        -0.0038377109449356794
      ],
      "min": [
        -0.3635001480579376,
        -0.9945688843727112,
        -0.9448143839836121
      ],
      "type": "VEC3"
    },
    {
      "bufferView": 2,
      "byteOffset": 193380,
      "componentType": 5126,
      "count": 1255,
      "max": [
        0.9955207109451294,
        0.9966253042221069,
        0.9999987483024597
      ],
      "min": [
        -0.9971671104431152,
        -0.9996944665908813,
        -0.9999854564666748
      ],
      "type": "VEC3"
    },
    {
      "bufferView": 1,
      "byteOffset": 59440,
      "componentType": 5126,
      "count": 1255,
      "max": [
        1.0000001192092896,
        1.0000001192092896
      ],
      "min": [
        0.0,
        0.0
      ],
      "type": "VEC2"
    },
    {
      "bufferView": 0,
      "byteOffset": 159744,
      "componentType": 5125,
      "count": 6528,
      "type": "SCALAR"
    },
    {
      "bufferView": 2,
      "byteOffset": 208440,
      "componentType": 5126,
      "count": 1255,
      "max": [
        0.36349743604660034,
        0.8141483664512634,
        -0.0038377109449356794
      ],
      "min": [
        -0.3635001480579376,
        -0.9945688843727112,
        -0.9448143839836121
      ],
      "type": "VEC3"
    },
    {
      "bufferView": 2,
      "byteOffset": 223500,
      "componentType": 5126,
      "count": 1255,
      "max": [
        0.9955207109451294,
        0.9966253042221069,
        0.9999987483024597
      ],
      "min": [
        -0.9971671104431152,
        -0.9996944665908813,
        -0.9999854564666748
      ],
      "type": "VEC3"
    },
    {
      "bufferView": 1,
      "byteOffset": 69480,
      "componentType": 5126,
      "count": 1255,
      "max": [
        1.0000001192092896,
        1.0000001192092896
      ],
      "min": [
        0.0,
        0.0
      ],
      "type": "VEC2"
    },
    {
      "bufferView": 0,
      "byteOffset": 185856,
      "componentType": 5125,
      "count": 6528,
      "type": "SCALAR"
    },
    {
      "bufferView": 2,
      "byteOffset": 238560,
      "componentType": 5126,
      "count": 1255,
      "max": [
        0.36349743604660034,
        0.8141483664512634,
        -0.0038377109449356794
      ],
      "min": [
        -0.3635001480579376,
        -0.9945688843727112,
        -0.9448143839836121
      ],
      "type": "VEC3"
    },
    {
      "bufferView": 2,
      "byteOffset": 253620,
      "componentType": 5126,
      "count": 1255,
      "max": [
        0.9955207109451294,
        0.9966253042221069,
        0.9999987483024597
      ],
      "min": [
        -0.9971671104431152,
        -0.9996944665908813,
        -0.9999854564666748
      ],
      "type": "VEC3"
    },
    {
      "bufferView": 1,
      "byteOffset": 79520,
      "componentType": 5126,
      "count": 1255,
      "max": [
        1.0000001192092896,
        1.0000001192092896
      ],
      "min": [
        0.0,
        0.0
      ],
      "type": "VEC2"
    },
    {
      "bufferView": 0,
      "byteOffset": 211968,
      "componentType": 5125,
      "count": 6528,
      "type": "SCALAR"
    }
  ],
  "asset": {
    "extras": {
      "author": "yuri.tomas (https://sketchfab.com/yuri.tomas)",
      "license": "SKETCHFAB Standard (https://sketchfab.com/licenses)",
      "source": "https://sketchfab.com/3d-models/planta-941623748e2b4e37bab12ab9660208f6",
      "title": "planta"
    },
    "generator": "Sketchfab-16.21.0",
    "version": "2.0"
  },
  "bufferViews": [
    {
      "buffer": 0,
      "byteLength": 238080,
      "name": "floatBufferViews",
      "target": 34963
    },
    {
      "buffer": 0,
      "byteLength": 89560,
      "byteOffset": 238080,
      "byteStride": 8,
      "name": "floatBufferViews",
      "target": 34962
    },
    {
      "buffer": 0,
      "byteLength": 268680,
      "byteOffset": 327640,
      "byteStride": 12,
      "name": "floatBufferViews",
      "target": 34962
    }
  ],
  "buffers": [
    {
      "byteLength": 596320,
      "uri": "scene.bin"
    }
  ],
  "materials": [
    {
      "doubleSided": true,
      "name": "Material",
      "pbrMetallicRoughness": {
        "baseColorFactor": [
          0.6050239058055794,
          0.11668404223035378,
          0.03174635118552227,
          1.0
        ],
        "metallicFactor": 0.0,
        "roughnessFactor": 0.9225978933370704
      }
    },
    {
      "doubleSided": true,
      "name": "Material.003",
      "pbrMetallicRoughness": {
        "baseColorFactor": [
          0.246801,
          0.0801143,
          0.0404262,
          1.0
        ],
        "metallicFactor": 0.0,
        "roughnessFactor": 0.9748025523521879
      }
    },
    {
      "doubleSided": true,
      "name": "Material.002",
      "pbrMetallicRoughness": {
        "baseColorFactor": [
          0.154703,
          0.220369,
          0.051428,
          1.0
        ],
        "metallicFactor": 0.0,
        "roughnessFactor": 0.9565731296735548
      }
    }
  ],
  "meshes": [
    {
      "name": "Cube_Material_0",
      "primitives": [
        {
          "attributes": {
            "NORMAL": 1,
            "POSITION": 0,
            "TEXCOORD_0": 2
          },
          "indices": 3,
          "material": 0,
          "mode": 4
        }
      ]
    },
    {
      "name": "Cube_Material.003_0",
      "primitives": [
        {
          "attributes": {
            "NORMAL": 5,
            "POSITION": 4,
            "TEXCOORD_0": 6
          },
          "indices": 7,
          "material": 1,
          "mode": 4
        }
      ]
    },
    {
      "name": "Plane_Material.002_0",
      "primitives": [
        {
          "attributes": {
            "NORMAL": 9,
            "POSITION": 8,
            "TEXCOORD_0": 10
          },
          "indices": 11,
          "material": 2,
          "mode": 4
        }
      ]
    },
    {
      "name": "Plane.001_Material.002_0",
      "primitives": [
        {
          "attributes": {
            "NORMAL": 13,
            "POSITION": 12,
            "TEXCOORD_0": 14
          },
          "indices": 15,
          "material": 2,
          "mode": 4
        }
      ]
    },
    {
      "name": "Plane.002_Material.002_0",
      "primitives": [
        {
          "attributes": {
            "NORMAL": 17,
            "POSITION": 16,
            "TEXCOORD_0": 18
          },
          "indices": 19,
          "material": 2,
          "mode": 4
        }
      ]
    },
    {
      "name": "Plane.003_Material.002_0",
      "primitives": [
        {
          "attributes": {
            "NORMAL": 21,
            "POSITION": 20,
            "TEXCOORD_0": 22
          },
          "indices": 23,
          "material": 2,
          "mode": 4
        }
      ]
    },
    {
      "name": "Plane.004_Material.002_0",
      "primitives": [
        {
          "attributes": {
            "NORMAL": 25,
            "POSITION": 24,
            "TEXCOORD_0": 26
          },
          "indices": 27,
          "material": 2,
          "mode": 4
        }
      ]
    }
  ],
  "nodes": [
    {
      "children": [
        1
      ],
      "matrix": [
        1.0,
        0.0,
        0.0,
        0.0,
        0.0,
        2.220446049250313e-16,
        -1.0,
        0.0,
        0.0,
        1.0,
        2.220446049250313e-16,
        0.0,
        0.0,
        0.0,
        0.0,
        1.0
      ],
      "name": "Sketchfab_model"
    },
    {
      "children": [
        2
      ],
      "matrix": [
        0.009999999776482582,
        0.0,
        0.0,
        0.0,
        0.0,
        0.0,
        0.009999999776482582,
        0.0,
        0.0,
        -0.009999999776482582,
        0.0,
        0.0,
        0.0,
        0.0,
        0.0,
        1.0
      ],
      "name": "d252e320ed014cad98e9390f13fe9176.fbx"
    },
    {
      "children": [
        3,
        6,
        8,
        10,
        12,
        14
      ],
      "name": "RootNode"
    },
    {
      "children": [
        4,
        5
      ],
      "matrix": [
        100.0,
        0.0,
        0.0,
        0.0,
        0.0,
        -1.629206793918314e-05,
        -99.99999999999868,
        0.0,
        0.0,
        99.99999999999868,
        -1.629206793918314e-05,
        0.0,
        0.0,
        100.0,
        0.0,
        1.0
      ],
      "name": "Cube"
    },
    {
      "mesh": 0,
      "name": "Cube_Material_0"
    },
    {
      "mesh": 1,
      "name": "Cube_Material.003_0"
    },
    {
      "children": [
        7
      ],
      "matrix": [
        94.51302733127815,
        -9.49466764581699,
        31.798379120717527,
        0.0,
        11.852606925660394,
        116.64057755717575,
        -0.40134889712032257,
        0.0,
        -31.556640433603057,
        3.5330430001634916,
        94.84944743250544,
        0.0,
        5.2841715812683105,
        337.71795654296875,
        -30.27321434020996,
        1.0
      ],
      "name": "Plane"
    },
    {
      "mesh": 2,
      "name": "Plane_Material.002_0"
    },
    {
      "children": [
        9
      ],
      "matrix": [
        2.6516763872071043,
        -9.49466416767111,
        -99.68359672926944,
        0.0,
        -3.8631626630631315,
        116.64057817643581,
        -11.212546617448098,
        0.0,
        99.93421260724561,
        3.533039107932181,
        2.321828060160116,
        0.0,
        -51.58529281616211,
        362.0492858886719,
        11.766241073608398,
        1.0
      ],
      "name": "Plane.001"
    },
    {
      "mesh": 3,
      "name": "Plane.001_Material.002_0"
    },
    {
      "children": [
        11
      ],
      "matrix": [
        47.32204834636229,
        -4.507128473476501,
        -1.1755753108711806,
        0.0,
        10.95504756569955,
        116.17318460584026,
        -4.416712058068298,
        0.0,
        1.319986532614172,
        1.6544802801401075,
        46.79199267354962,
        0.0,
        -2.4874470233917236,
        326.3747253417969,
        56.869964599609375,
        1.0
      ],
      "name": "Plane.002"
    },
    {
      "mesh": 4,
      "name": "Plane.002_Material.002_0"
    },
    {
      "children": [
        13
      ],
      "matrix": [
        47.32204834636229,
        -4.507128473476501,
        -1.1755753108711806,
        0.0,
        10.95504756569955,
        116.17318460584026,
        -4.416712058068298,
        0.0,
        1.319986532614172,
        1.6544802801401075,
        46.79199267354962,
        0.0,
        -15.104397773742676,
        345.10101318359375,
        -2.9037728309631348,
        1.0
      ],
      "name": "Plane.003"
    },
    {
      "mesh": 5,
      "name": "Plane.003_Material.002_0"
    },
    {
      "children": [
        15
      ],
      "matrix": [
        -43.35345417772237,
        -9.494666564631887,
        89.80159954822037,
        0.0,
        -1.0821069376413217,
        116.64057774862455,
        11.809926832353408,
        0.0,
        -90.16557697226044,
        3.533041296884899,
        -43.15562506791225,
        0.0,
        32.884765625,
        328.7708740234375,
        28.667247772216797,
        1.0
      ],
      "name": "Plane.004"
    },
    {
      "mesh": 6,
      "name": "Plane.004_Material.002_0"
    }
  ],
  "scene": 0,
  "scenes": [
    {
      "name": "Sketchfab_Scene",
      "nodes": [
        0
      ]
    }
  ]
}
